<mxfile host="app.diagrams.net" modified="2024-01-18T04:58:06.846Z" agent="Mozilla/5.0 (Windows NT 10.0; Win64; x64) AppleWebKit/537.36 (KHTML, like Gecko) Chrome/120.0.0.0 Safari/537.36 Edg/120.0.0.0" etag="noQcXWME9jU-76dd-epw" version="22.1.21" type="github">
  <diagram name="Page-1" id="2YBvvXClWsGukQMizWep">
    <mxGraphModel dx="1308" dy="833" grid="1" gridSize="10" guides="1" tooltips="1" connect="1" arrows="1" fold="1" page="1" pageScale="1" pageWidth="2000" pageHeight="2000" math="0" shadow="0">
      <root>
        <mxCell id="0" />
        <mxCell id="1" parent="0" />
        <mxCell id="95igaDQyrnbgRM2Dg2hY-4" value="" style="rounded=1;whiteSpace=wrap;html=1;" vertex="1" parent="1">
          <mxGeometry x="150" y="90" width="350" height="490" as="geometry" />
        </mxCell>
        <mxCell id="95igaDQyrnbgRM2Dg2hY-5" value="&lt;font style=&quot;font-size: 16px;&quot;&gt;Relay_A&lt;/font&gt;" style="text;html=1;strokeColor=none;fillColor=none;align=center;verticalAlign=middle;whiteSpace=wrap;rounded=0;fontStyle=1" vertex="1" parent="1">
          <mxGeometry x="290" y="110" width="60" height="30" as="geometry" />
        </mxCell>
        <mxCell id="95igaDQyrnbgRM2Dg2hY-23" style="edgeStyle=orthogonalEdgeStyle;rounded=0;orthogonalLoop=1;jettySize=auto;html=1;curved=0;" edge="1" parent="1">
          <mxGeometry relative="1" as="geometry">
            <mxPoint x="229.5" y="297" as="sourcePoint" />
            <mxPoint x="429.5" y="297" as="targetPoint" />
          </mxGeometry>
        </mxCell>
        <mxCell id="95igaDQyrnbgRM2Dg2hY-6" value="Nostr" style="shape=umlLifeline;perimeter=lifelinePerimeter;whiteSpace=wrap;html=1;container=1;dropTarget=0;collapsible=0;recursiveResize=0;outlineConnect=0;portConstraint=eastwest;newEdgeStyle={&quot;curved&quot;:0,&quot;rounded&quot;:0};" vertex="1" parent="1">
          <mxGeometry x="180" y="170" width="100" height="300" as="geometry" />
        </mxCell>
        <mxCell id="95igaDQyrnbgRM2Dg2hY-19" style="edgeStyle=orthogonalEdgeStyle;rounded=0;orthogonalLoop=1;jettySize=auto;html=1;curved=0;" edge="1" parent="1">
          <mxGeometry relative="1" as="geometry">
            <mxPoint x="429.5" y="241" as="sourcePoint" />
            <mxPoint x="230" y="241" as="targetPoint" />
          </mxGeometry>
        </mxCell>
        <mxCell id="95igaDQyrnbgRM2Dg2hY-7" value="ZNostr" style="shape=umlLifeline;perimeter=lifelinePerimeter;whiteSpace=wrap;html=1;container=1;dropTarget=0;collapsible=0;recursiveResize=0;outlineConnect=0;portConstraint=eastwest;newEdgeStyle={&quot;curved&quot;:0,&quot;rounded&quot;:0};" vertex="1" parent="1">
          <mxGeometry x="380" y="170" width="100" height="300" as="geometry" />
        </mxCell>
        <mxCell id="95igaDQyrnbgRM2Dg2hY-12" style="edgeStyle=orthogonalEdgeStyle;rounded=0;orthogonalLoop=1;jettySize=auto;html=1;curved=0;" edge="1" parent="1">
          <mxGeometry relative="1" as="geometry">
            <mxPoint x="69.5" y="260" as="sourcePoint" />
            <mxPoint x="230" y="260" as="targetPoint" />
          </mxGeometry>
        </mxCell>
        <mxCell id="95igaDQyrnbgRM2Dg2hY-8" value="Client" style="shape=umlLifeline;perimeter=lifelinePerimeter;whiteSpace=wrap;html=1;container=1;dropTarget=0;collapsible=0;recursiveResize=0;outlineConnect=0;portConstraint=eastwest;newEdgeStyle={&quot;curved&quot;:0,&quot;rounded&quot;:0};" vertex="1" parent="1">
          <mxGeometry x="20" y="180" width="100" height="300" as="geometry" />
        </mxCell>
        <mxCell id="95igaDQyrnbgRM2Dg2hY-9" value="" style="rounded=1;whiteSpace=wrap;html=1;" vertex="1" parent="1">
          <mxGeometry x="600" y="90" width="290" height="490" as="geometry" />
        </mxCell>
        <mxCell id="95igaDQyrnbgRM2Dg2hY-10" value="&lt;font style=&quot;font-size: 16px;&quot;&gt;Relay_B&lt;/font&gt;" style="text;html=1;strokeColor=none;fillColor=none;align=center;verticalAlign=middle;whiteSpace=wrap;rounded=0;fontStyle=1" vertex="1" parent="1">
          <mxGeometry x="707" y="110" width="60" height="30" as="geometry" />
        </mxCell>
        <mxCell id="95igaDQyrnbgRM2Dg2hY-14" value="send event data" style="text;html=1;strokeColor=none;fillColor=none;align=center;verticalAlign=middle;whiteSpace=wrap;rounded=0;" vertex="1" parent="1">
          <mxGeometry x="110" y="230" width="90" height="30" as="geometry" />
        </mxCell>
        <mxCell id="95igaDQyrnbgRM2Dg2hY-21" value="subscribe client&amp;nbsp;" style="text;html=1;strokeColor=none;fillColor=none;align=center;verticalAlign=middle;whiteSpace=wrap;rounded=0;" vertex="1" parent="1">
          <mxGeometry x="280" y="220" width="90" height="30" as="geometry" />
        </mxCell>
        <mxCell id="95igaDQyrnbgRM2Dg2hY-24" value="pub event data" style="text;html=1;strokeColor=none;fillColor=none;align=center;verticalAlign=middle;whiteSpace=wrap;rounded=0;" vertex="1" parent="1">
          <mxGeometry x="275" y="273" width="90" height="30" as="geometry" />
        </mxCell>
      </root>
    </mxGraphModel>
  </diagram>
</mxfile>
